<?xml version="1.0" encoding="UTF-8" standalone="no"?>
<!-- Created with Inkscape (http://www.inkscape.org/) -->

<svg
   xmlns:dc="http://purl.org/dc/elements/1.1/"
   xmlns:cc="http://creativecommons.org/ns#"
   xmlns:rdf="http://www.w3.org/1999/02/22-rdf-syntax-ns#"
   xmlns:svg="http://www.w3.org/2000/svg"
   xmlns="http://www.w3.org/2000/svg"
   xmlns:sodipodi="http://sodipodi.sourceforge.net/DTD/sodipodi-0.dtd"
   xmlns:inkscape="http://www.inkscape.org/namespaces/inkscape"
   width="45.6875"
   height="29.5625"
   id="svg2"
   version="1.1"
   inkscape:version="0.48.3.1 r9886"
   sodipodi:docname="fbg.svg">
  <defs
     id="defs4">
    <clipPath
       clipPathUnits="userSpaceOnUse"
       id="clipPath2993">
      <rect
         style="opacity:0.494898;fill:#808080;fill-opacity:1;stroke:none"
         id="rect2995"
         width="45.552498"
         height="28.587688"
         x="343.08405"
         y="399.61221" />
    </clipPath>
  </defs>
  <sodipodi:namedview
     id="base"
     pagecolor="#ffffff"
     bordercolor="#666666"
     borderopacity="1.0"
     inkscape:pageopacity="0.0"
     inkscape:pageshadow="2"
     inkscape:zoom="16"
     inkscape:cx="33.759277"
     inkscape:cy="9.9338198"
     inkscape:document-units="px"
     inkscape:current-layer="layer1"
     showgrid="false"
     inkscape:window-width="1680"
     inkscape:window-height="1028"
     inkscape:window-x="0"
     inkscape:window-y="0"
     inkscape:window-maximized="1"
     fit-margin-top="0"
     fit-margin-left="0"
     fit-margin-right="0"
     fit-margin-bottom="0" />
  <metadata
     id="metadata7">
    <rdf:RDF>
      <cc:Work
         rdf:about="">
        <dc:format>image/svg+xml</dc:format>
        <dc:type
           rdf:resource="http://purl.org/dc/dcmitype/StillImage" />
        <dc:title />
      </cc:Work>
    </rdf:RDF>
  </metadata>
  <g
     inkscape:label="Layer 1"
     inkscape:groupmode="layer"
     id="layer1"
     transform="translate(-344.24236,-441.7333)">
    <g
       id="g3080"
       transform="matrix(1.0029637,0,0,1.034099,0.14152025,28.494714)"
       style="fill:#ff6600;fill-opacity:0.84482757"
       clip-path="url(#clipPath2993)">
      <path
         style="fill:#ff6600;fill-opacity:0.84482757"
         d="m 342.89713,413.94763 0,-14.5 23,0 23,0 0,14.5 0,14.5 -23,0 -23,0 0,-14.5 z"
         id="path3096"
         inkscape:connector-curvature="0" />
      <path
         style="fill:#ff6600;fill-opacity:0.84482757"
         d="m 342.9146,427.69763 c 0.01,-0.4125 2.93461,-2.48674 6.5,-4.60941 3.56539,-2.12268 6.48253,-4.09807 6.48253,-4.38976 0,-0.96579 -3.47422,-3.18706 -5,-3.19679 -0.825,-0.005 -2.625,0.87042 -4,1.94596 -1.375,1.07554 -2.8375,1.96553 -3.25,1.97776 -0.4125,0.0122 -0.75,-4.47776 -0.75,-9.97776 0,-6 0.4,-10 1,-10 0.58845,0 1,3.50768 1,8.52305 l 0,8.52306 2.5,-1.63807 c 2.09395,-1.37201 2.5,-2.42042 2.5,-6.45496 0,-4.17548 0.38674,-5.09228 2.90437,-6.88499 3.16544,-2.25399 7.12726,-2.65671 10.16137,-1.03291 1.33333,0.71358 1.93426,0.71358 1.93426,0 0,-0.56935 0.675,-1.03518 1.5,-1.03518 0.825,0 1.5,0.46583 1.5,1.03518 0,0.71358 0.60093,0.71358 1.93426,0 3.03411,-1.6238 6.99593,-1.22108 10.16137,1.03291 2.51763,1.79271 2.90437,2.70951 2.90437,6.88499 0,4.01424 0.4101,5.08561 2.4611,6.42948 l 2.46111,1.61257 0.33326,-8.74756 0.33326,-8.74757 0.20564,10.31809 0.20563,10.3181 -2.90437,-2.0681 c -1.5974,-1.13745 -3.5099,-2.05378 -4.25,-2.03629 -1.38928,0.0328 -4.84563,2.3056 -4.84563,3.18631 0,0.27369 2.7,2.16415 6,4.20103 3.3,2.03687 6,4.12584 6,4.64214 0,1.45333 -0.815,1.16022 -5.31982,-1.91328 -2.2991,-1.56861 -5.24408,-3.41195 -6.5444,-4.09632 -2.32544,-1.2239 -2.35781,-1.17711 -1.97357,2.85201 0.27997,2.93577 0.0142,4.09631 -0.93804,4.09631 -0.9745,0 -1.24812,-1.39864 -1.02643,-5.24675 0.27835,-4.83166 0.59893,-5.43826 4.05226,-7.66754 3.27865,-2.11651 3.75,-2.91107 3.75,-6.32135 l 0,-3.90055 -2.75,1.86183 c -1.5125,1.02401 -4.43442,2.96715 -6.49317,4.3181 l -3.74316,2.45626 -0.007,7.25 c -0.005,5.77474 -0.3121,7.25 -1.50687,7.25 -1.19477,0 -1.50139,-1.47526 -1.50683,-7.25 l -0.007,-7.25 -3.74317,-2.45626 c -2.05878,-1.35095 -4.9807,-3.29409 -6.4932,-4.3181 l -2.75,-1.86183 0,3.90055 c 0,3.41028 0.47135,4.20484 3.75,6.32135 3.45333,2.22928 3.77391,2.83588 4.05226,7.66754 0.22169,3.84811 -0.0519,5.24675 -1.02643,5.24675 -0.95225,0 -1.21801,-1.16054 -0.93804,-4.09631 0.38424,-4.02912 0.35187,-4.07591 -1.97357,-2.85201 -1.30032,0.68437 -4.2453,2.52771 -6.5444,4.09632 -4.13538,2.82144 -6.33621,3.55548 -6.30235,2.102 z m 33.84289,-21.85363 3.36036,-2.23087 -3.00823,-1.55562 c -2.81165,-1.45396 -3.26621,-1.41429 -6.95627,0.60695 l -3.94804,2.16255 -3.70775,-2.18762 c -3.51349,-2.07302 -3.87097,-2.10322 -6.82336,-0.57648 l -3.11562,1.61115 6.88239,4.33663 6.8824,4.33663 3.53688,-2.13623 c 1.94528,-1.17492 5.04904,-3.14012 6.89724,-4.36709 z"
         id="path3094"
         inkscape:connector-curvature="0" />
      <path
         style="fill:#ff6600;fill-opacity:0.84482757"
         d="m 342.89815,427.80462 c 5.6e-4,-0.47134 2.13806,-2.06548 4.75,-3.54252 2.61194,-1.47704 5.64898,-3.38391 6.74898,-4.23749 1.98193,-1.53795 1.97773,-1.5694 -0.46476,-3.48077 -2.45283,-1.91947 -2.4855,-1.91665 -6.75,0.58252 l -4.28524,2.51131 0.20564,-10.34502 0.20563,-10.34502 0.3333,8.75 c 0.18331,4.8125 0.66565,8.75 1.07186,8.75 0.40621,0 1.73869,-0.70052 2.96106,-1.5567 1.77845,-1.24568 2.22251,-2.52808 2.22251,-6.41844 0,-4.4413 0.29127,-5.04175 3.36803,-6.9433 3.84731,-2.37776 6.77516,-2.62938 9.67605,-0.83156 1.63806,1.01519 2.17633,0.99393 2.86538,-0.11315 0.71631,-1.15087 0.92481,-1.15087 1.33884,0 0.39965,1.11091 0.88215,1.13184 2.60748,0.11315 3.03799,-1.79374 5.92582,-1.5481 9.77619,0.83156 3.0923,1.91115 3.36803,2.48802 3.36803,7.04651 0,4.46826 0.29948,5.13537 2.99368,6.66844 1.64652,0.93692 2.99652,2.04099 3,2.45349 0.0102,1.21415 -1.30333,0.86231 -4.39855,-1.17817 -2.65591,-1.75087 -3.10585,-1.7833 -5.25,-0.3784 -1.28982,0.84512 -2.34513,1.90225 -2.34513,2.34918 0,0.44692 2.7,2.45275 6,4.45739 3.3,2.00464 6,4.09893 6,4.65396 0,0.95476 -4.27552,-1.28932 -10.15437,-5.32969 -3.73243,-2.56519 -4.1053,-2.3444 -3.67424,2.17573 0.22086,2.31591 -0.0507,4.00057 -0.64496,4.00136 -0.61858,8.2e-4 -0.8909,-2.17459 -0.68534,-5.47473 0.3112,-4.9964 0.6397,-5.66065 3.75,-7.58292 2.94312,-1.81895 3.40891,-2.64396 3.40891,-6.03781 l 0,-3.93099 -4.25,2.65382 c -9.9914,6.2389 -9.63048,5.74633 -10.00825,13.65871 l -0.34436,7.21256 -0.19869,-7.18191 c -0.21872,-7.90544 0.16946,-7.37131 -9.9487,-13.68936 l -4.25,-2.65382 0,3.93099 c 0,3.39385 0.46579,4.21886 3.40891,6.03781 3.1103,1.92227 3.4388,2.58652 3.75,7.58292 0.20556,3.30014 -0.0668,5.47555 -0.68534,5.47473 -0.59427,-7.9e-4 -0.86582,-1.68545 -0.64496,-4.00136 0.2098,-2.2 0.11793,-4 -0.20416,-4 -0.32209,0 -3.07051,1.58957 -6.1076,3.53237 -6.35094,4.06265 -8.51727,5.03559 -8.51583,3.82462 z m 30.82449,-19.89017 6.32551,-3.84431 -2.32551,-1.78902 c -2.97263,-2.28685 -3.38457,-2.26912 -7.58421,0.32639 l -3.49476,2.15989 -4.20177,-2.29531 c -4.07721,-2.22727 -4.28188,-2.24282 -6.90448,-0.52443 -1.48649,0.97399 -2.47721,1.99639 -2.2016,2.272 1.32046,1.32045 12.97965,8.09486 13.48495,7.83523 0.317,-0.16288 3.42284,-2.02608 6.90187,-4.14044 z"
         id="path3092"
         inkscape:connector-curvature="0" />
      <path
         style="fill:#ff6600;fill-opacity:0.84482757"
         d="m 342.89713,428.0108 c 0,-0.24026 3.14615,-2.37776 6.99144,-4.75 3.84529,-2.37224 6.99244,-4.53817 6.99367,-4.81317 10e-4,-0.275 -1.38501,-1.28959 -3.08055,-2.25464 -2.97408,-1.69275 -3.18208,-1.68394 -5.89805,0.25 -4.70346,3.34916 -5.02396,2.83209 -4.80087,-7.74536 l 0.20563,-9.75 0.3333,8.75 c 0.18331,4.8125 0.58384,8.75 0.89007,8.75 0.30623,0 1.86371,-0.77202 3.46107,-1.71561 2.59216,-1.53122 2.90497,-2.25667 2.91061,-6.75 0.006,-4.57195 0.28876,-5.19514 3.08104,-6.78439 3.75088,-2.13484 5.92592,-2.20719 8.47151,-0.2818 2.54672,1.92623 3.20135,1.88816 3.7518,-0.2182 0.43555,-1.66667 0.46285,-1.66667 0.57333,0 0.13992,2.1108 0.98625,2.16271 3.55713,0.2182 2.54559,-1.92539 4.72063,-1.85304 8.47151,0.2818 2.7996,1.59342 3.07528,2.20566 3.08104,6.84253 0.006,4.7918 0.213,5.20384 3.50632,6.9774 1.925,1.03668 3.5,2.23255 3.5,2.65747 0,1.22304 -0.98332,0.92066 -4.00651,-1.23204 -2.71597,-1.93394 -2.92398,-1.94275 -5.89805,-0.25 -1.69554,0.96505 -3.08457,1.97964 -3.08675,2.25464 -0.002,0.275 2.91999,2.28578 6.49368,4.46841 3.5737,2.18262 6.49763,4.32709 6.49763,4.76548 0,0.43839 -2.86113,-1.0099 -6.35806,-3.21841 -3.49694,-2.20851 -6.64694,-4.01548 -7,-4.01548 -0.35307,0 -0.64194,1.8 -0.64194,4 0,2.2 -0.3375,4.00061 -0.75,4.00136 -0.4125,7.5e-4 -0.60194,-2.36926 -0.42098,-5.26669 0.29579,-4.73597 0.67454,-5.49454 3.75,-7.51055 2.9675,-1.94524 3.42098,-2.78234 3.42098,-6.31487 l 0,-4.07237 -3.75,2.24112 c -9.83309,5.87657 -10.13073,6.27851 -10.50785,14.18975 l -0.34476,7.23225 -0.19869,-7.19911 c -0.21794,-7.89629 -0.49606,-8.27487 -10.4487,-14.22289 l -3.75,-2.24112 0,4.07237 c 0,3.53253 0.45348,4.36963 3.42098,6.31487 3.07546,2.01601 3.45421,2.77458 3.75,7.51055 0.18096,2.89743 -0.008,5.26744 -0.42098,5.26669 -0.4125,-7.5e-4 -0.75,-1.80136 -0.75,-4.00136 0,-2.2 -0.28887,-4 -0.64194,-4 -0.35306,0 -3.49203,1.8 -6.97549,4 -6.14359,3.88003 -7.38257,4.47802 -7.38257,3.56317 z m 30.66407,-19.74095 6.61505,-4.17778 -2.25034,-1.82222 c -2.86361,-2.31881 -4.89457,-2.27384 -8.02878,0.17778 -1.375,1.07554 -2.95,1.95553 -3.5,1.95553 -0.55,0 -2.125,-0.87999 -3.5,-1.95553 -3.13391,-2.45138 -5.16516,-2.49659 -8.02764,-0.1787 l -2.24921,1.8213 6.38843,4.12061 c 3.51363,2.26634 6.73695,4.14676 7.16293,4.1787 0.42598,0.0319 3.75128,-1.82191 7.38956,-4.11969 z"
         id="path3090"
         inkscape:connector-curvature="0" />
      <path
         style="fill:#ff6600;fill-opacity:0.84482757"
         d="m 342.89713,428.05933 c 0,-0.68347 13.23309,-8.71194 13.65848,-8.28655 0.38237,0.38236 -12.25133,8.67485 -13.21623,8.67485 -0.24324,0 -0.44225,-0.17474 -0.44225,-0.3883 z m 15,-4.04027 c 0,-4.44796 -1.23611,-6.55705 -5.03435,-8.58981 -1.41283,-0.75613 -2.69472,-0.50758 -5.17202,1.00281 -1.8115,1.10445 -3.63113,2.00978 -4.04363,2.01183 -0.4125,0.002 -0.65661,-4.38376 -0.54246,-9.74626 l 0.20754,-9.75 0.32925,9.19457 0.32925,9.19456 3.46321,-2.04334 c 3.25046,-1.91782 3.46321,-2.36528 3.46321,-7.28405 0,-4.71631 0.27517,-5.37864 2.75,-6.61914 4.57452,-2.29296 4.88019,-2.23906 1.81169,0.31946 l -2.93831,2.44998 6.43831,4.12298 c 3.54107,2.26764 6.88831,4.12299 7.43831,4.12299 0.55,0 3.89724,-1.85535 7.43831,-4.12299 l 6.43831,-4.12298 -2.93831,-2.44998 c -3.0685,-2.55852 -2.76283,-2.61242 1.81169,-0.31946 2.48205,1.24412 2.75,1.89619 2.75,6.69223 0,4.86732 0.24674,5.44141 2.93659,6.83238 1.61512,0.83521 3.27516,2.06639 3.68897,2.73595 0.41381,0.66956 -0.93521,0.22168 -2.99783,-0.9953 -2.82625,-1.66753 -4.20867,-1.96732 -5.611,-1.21682 -3.77996,2.02298 -5.01673,4.13829 -5.01673,8.58039 0,2.43571 -0.3375,4.42918 -0.75,4.42993 -0.4125,7.5e-4 -0.60194,-2.36926 -0.42098,-5.26669 0.29579,-4.73597 0.67454,-5.49454 3.75,-7.51055 2.9714,-1.9478 3.42098,-2.77995 3.42098,-6.33209 l 0,-4.08958 -3.25,1.9215 c -10.99008,6.4977 -10.63391,6.03577 -11.00749,14.27605 l -0.34002,7.5 -0.21362,-7.5 c -0.2355,-8.26788 0.2128,-7.68281 -10.93887,-14.27605 l -3.25,-1.9215 0,4.08958 c 0,3.55214 0.44958,4.38429 3.42098,6.33209 3.07546,2.01601 3.45421,2.77458 3.75,7.51055 0.18096,2.89743 -0.008,5.26744 -0.42098,5.26669 -0.4125,-7.5e-4 -0.75,-1.99422 -0.75,-4.42993 z m 24.21397,0.14583 c -3.45732,-2.18819 -6.09397,-4.17059 -5.85922,-4.40534 0.23474,-0.23475 3.06346,1.23987 6.28603,3.27692 6.84326,4.32578 6.81788,4.30652 6.27589,4.75905 -0.22917,0.19134 -3.24538,-1.44245 -6.7027,-3.63063 z m -20.18575,-22.2663 c -1.90948,-1.34803 -3.00799,-2.45096 -2.44113,-2.45096 0.56686,0 1.90416,0.66069 2.97178,1.4682 2.54672,1.92623 3.20135,1.88816 3.7518,-0.2182 0.43555,-1.66667 0.46285,-1.66667 0.57333,0 0.13992,2.1108 0.98625,2.16271 3.55713,0.2182 1.06762,-0.80751 2.40958,-1.4682 2.98213,-1.4682 0.57256,0 -0.61458,1.125 -2.63807,2.5 -4.44048,3.01738 -4.41319,3.01753 -8.75697,-0.049 z"
         id="path3088"
         inkscape:connector-curvature="0" />
      <path
         style="fill:#ff6600;fill-opacity:0.84482757"
         d="m 342.89713,428.09755 c 0,-0.23125 3.15,-2.32371 7,-4.64992 3.85,-2.32621 7,-4.53081 7,-4.89912 0,-0.36832 -1.35932,-1.47263 -3.0207,-2.45404 -2.93149,-1.73167 -3.11956,-1.72327 -6.36804,0.2844 -1.84103,1.13782 -3.63171,2.06876 -3.97929,2.06876 -0.34759,0 -0.53858,-4.3875 -0.42443,-9.75 l 0.20754,-9.75 0.33075,9.30789 0.33075,9.3079 3.4184,-2.11269 3.41839,-2.11268 4.03561,2.30479 c 3.99143,2.27955 4.03373,2.36501 3.86307,7.80479 l -0.17255,5.5 -0.37437,-4.74579 -0.37437,-4.74579 -5.22757,3.34404 c -6.2564,4.00217 -9.66319,5.8698 -9.66319,5.29746 z m 23.20124,-6.66552 -0.20124,-7.5156 -6.48619,-4.2344 c -3.56741,-2.32892 -6.94241,-4.2344 -7.5,-4.2344 -1.90991,0 -1.0137,-1.86389 1.89056,-3.93191 1.5974,-1.13745 3.2849,-2.06051 3.75,-2.05124 0.4651,0.009 -0.63573,0.9654 -2.44629,2.12474 -1.81056,1.15935 -3.16056,2.2207 -3,2.35857 0.16056,0.13786 3.44192,2.25485 7.29192,4.70442 l 7,4.45375 7.33266,-4.67863 7.33266,-4.67863 -3.33266,-2.13369 c -1.83296,-1.17353 -2.95213,-2.14127 -2.48703,-2.15053 0.4651,-0.009 2.1526,0.91379 3.75,2.05124 2.90426,2.06802 3.80047,3.93191 1.89056,3.93191 -0.55759,0 -3.91536,1.89423 -7.4617,4.2094 l -6.4479,4.2094 -0.33705,7.5406 -0.33705,7.5406 -0.20125,-7.5156 z m 7.98671,2.0156 c -0.17066,-5.43978 -0.12836,-5.52524 3.86307,-7.80479 l 4.03561,-2.30479 3.45669,2.13635 c 1.90117,1.17499 3.45668,2.36135 3.45668,2.63635 0,0.275 -1.56568,-0.46765 -3.4793,-1.65033 -3.38544,-2.09231 -3.56078,-2.10219 -6.5,-0.36595 -1.66138,0.98141 -3.0207,2.08075 -3.0207,2.443 0,0.36224 3.0375,2.51246 6.75,4.77827 3.7125,2.2658 6.34863,4.1224 5.85806,4.12577 -0.49056,0.003 -3.72875,-1.78549 -7.19597,-3.97524 l -6.30403,-3.98135 -0.37378,4.73135 -0.37378,4.73136 -0.17255,-5.5 z m -11.74321,-21.51426 c -2.16961,-1.33282 -3.49474,-2.42305 -2.94474,-2.42273 0.55,3.3e-4 1.87351,0.66129 2.94113,1.46879 2.52386,1.90895 3.31204,1.85155 3.86954,-0.2818 0.43555,-1.66667 0.46285,-1.66667 0.57333,0 0.14373,2.16834 1.0266,2.20135 3.95816,0.148 1.25795,-0.8811 2.47804,-1.41113 2.71132,-1.17785 0.23328,0.23328 -1.28319,1.38372 -3.36993,2.55653 l -3.79407,2.13239 -3.94474,-2.42333 z"
         id="path3086"
         inkscape:connector-curvature="0" />
      <path
         style="fill:#ff6600;fill-opacity:0.84482757"
         d="m 357.89713,423.88861 c 0,-2.50746 -0.35357,-4.3405 -0.78571,-4.07342 -0.43215,0.26708 -0.78572,-0.33023 -0.78572,-1.32737 0,-1.06639 0.52946,-1.60979 1.28572,-1.31959 1.22012,0.46821 1.97322,11.2794 0.78571,11.2794 -0.275,0 -0.5,-2.05156 -0.5,-4.55902 z m 8.1987,-2.28069 c -0.16786,-6.20068 -0.54787,-7.65302 -2.4487,-9.3587 l -2.25,-2.019 2.50965,1.47427 c 2.21199,1.29942 2.80501,1.29893 5,-0.004 l 2.49035,-1.47838 -2.20362,1.9856 c -1.81376,1.6343 -2.26513,3.29078 -2.55131,9.36286 l -0.34768,7.37726 -0.19869,-7.33971 z m 7.98155,1.6967 c -0.12184,-3.81445 0.23637,-5.80289 1.10546,-6.13639 0.75626,-0.2902 1.28572,0.2532 1.28572,1.31959 0,0.99714 -0.32847,1.60997 -0.72992,1.36186 -0.40146,-0.24812 -0.89892,1.69742 -1.10547,4.32341 l -0.37554,4.77454 -0.18025,-5.64301 z m -27.68025,2.6249 c 1.1,-0.89564 2.9,-2.07029 4,-2.61033 2,-0.98189 2,-0.98189 0,0.64655 -1.1,0.89564 -2.9,2.07029 -4,2.61033 -2,0.98189 -2,0.98189 0,-0.64655 z m 36.98214,-1.12198 c -5.10277,-3.38304 -6.90091,-5.16822 -2.91609,-2.89506 3.50781,2.00104 8.18749,5.47979 7.41609,5.51291 -0.28483,0.0122 -2.30983,-1.1658 -4.5,-2.61785 z m -40.2746,-16.10991 0.20754,-9.75 0.33075,9.30789 0.33075,9.3079 3.4215,-2.1146 c 2.72464,-1.68392 3.83702,-1.89222 5.46171,-1.02271 1.12211,0.60054 2.04021,1.31689 2.04021,1.59189 0,0.275 -0.9181,0.009 -2.04021,-0.59189 -1.62018,-0.86709 -2.72535,-0.66846 -5.36804,0.96481 -1.8303,1.13119 -3.6122,2.05671 -3.95978,2.05671 -0.34759,0 -0.53858,-4.3875 -0.42443,-9.75 z m 42.0964,7.6691 c -2.55036,-1.6336 -3.61103,-1.82512 -5.25,-0.94797 -1.12967,0.60458 -2.05394,0.87424 -2.05394,0.59924 0,-0.275 0.9181,-0.99135 2.04021,-1.59189 1.62646,-0.87046 2.74187,-0.65825 5.5,1.04637 1.90289,1.17605 3.45979,2.32657 3.45979,2.55671 0,0.65072 -0.28463,0.5227 -3.69606,-1.66246 z m -31.02918,-9.73939 c -3.6619,-1.90713 -3.70535,-2.88816 -0.21995,-4.96689 l 2.44519,-1.45835 -2.5,2.10053 c -1.375,1.15529 -2.05,2.12054 -1.5,2.145 0.55,0.0245 2.125,0.92446 3.5,2 3.02077,2.36288 2.55905,2.41098 -1.72524,0.17971 z m 22.72524,-0.12343 c 1.375,-1.10649 2.95,-2.03182 3.5,-2.05628 0.55,-0.0245 -0.125,-0.98971 -1.5,-2.145 l -2.5,-2.10053 2.44519,1.45835 c 3.57099,2.12978 3.43586,3.07889 -0.72201,5.07122 l -3.72318,1.78405 2.5,-2.01181 z m -12.61186,-3.59748 c -1.47635,-1.14448 -1.52555,-1.33811 -0.22561,-0.88783 1.08201,0.37479 1.82717,-0.0608 2.134,-1.24754 0.44905,-1.73674 0.47698,-1.73515 0.58747,0.0336 0.0761,1.2184 0.63182,1.65905 1.616,1.28138 2.12115,-0.81396 1.86555,0.0956 -0.36186,1.2877 -1.34615,0.72044 -2.38485,0.59101 -3.75,-0.46727 z m -4.38814,-2.4588 c -0.90129,-0.58246 -1.02463,-0.97549 -0.30902,-0.98469 0.65504,-0.008 1.4691,0.43469 1.80902,0.98469 0.76731,1.24153 0.42112,1.24153 -1.5,0 z m 11.73333,-0.12409 c 0.67834,-0.68342 1.48524,-0.99067 1.79313,-0.68278 0.30789,0.30789 -0.24711,0.86705 -1.23333,1.24258 -1.4252,0.54268 -1.54006,0.42782 -0.5598,-0.5598 z"
         id="path3084"
         inkscape:connector-curvature="0" />
      <path
         style="fill:#ff6600;fill-opacity:0.84482757"
         d="m 358.19679,423.44763 c 0,-3.025 0.18747,-4.2625 0.41659,-2.75 0.22913,1.5125 0.22913,3.9875 0,5.5 -0.22912,1.5125 -0.41659,0.275 -0.41659,-2.75 z m 8.04315,-2.5 c 0.004,-4.4 0.17944,-6.07561 0.39069,-3.72357 0.21124,2.35204 0.20827,5.95204 -0.007,8 -0.21488,2.04796 -0.38772,0.12357 -0.38409,-4.27643 z m 7.95685,2.5 c 0,-3.025 0.18747,-4.2625 0.41659,-2.75 0.22913,1.5125 0.22913,3.9875 0,5.5 -0.22912,1.5125 -0.41659,0.275 -0.41659,-2.75 z m -31.13962,-14.75 c 0.16467,-10.03228 0.57905,-8.8631 1.06399,3.0021 0.15178,3.71365 -0.0615,6.75115 -0.47403,6.75 -0.4125,-10e-4 -0.67798,-4.3896 -0.58996,-9.7521 z m 22.99785,-7.25 c 0,-1.375 0.22698,-1.9375 0.50439,-1.25 0.27741,0.6875 0.27741,1.8125 0,2.5 -0.27741,0.6875 -0.50439,0.125 -0.50439,-1.25 z"
         id="path3082"
         inkscape:connector-curvature="0" />
    </g>
  </g>
</svg>
